<svg viewBox="0 0 2465 496" xmlns="http://www.w3.org/2000/svg" fill-rule="evenodd" clip-rule="evenodd" stroke-linejoin="round" stroke-miterlimit="1.414"><path d="M788.047 417.89c.475.114.96.191 1.424.342 4.617 1.5 7.563 6.923 5.991 11.759-1.056 3.252-4.021 5.796-7.415 6.334-.482.076-.973.076-1.46.114H403.855c-.487-.038-.978-.038-1.46-.114-3.861-.612-7.142-3.873-7.757-7.758-.612-3.862 1.476-7.989 4.98-9.775a9.35 9.35 0 0 1 2.777-.902c.482-.076.973-.076 1.46-.115h382.732l1.46.115zm313.393-66.343c1.206.289 2.419.583 3.519 1.143 4.95 2.522 7.649 8.745 5.879 14.193-1.339 4.12-5.065 7.341-9.398 8.027-.611.097-1.233.097-1.85.146H527.846c-.616-.049-1.239-.049-1.85-.146-4.894-.775-9.051-4.908-9.831-9.831-.775-4.895 1.871-10.126 6.312-12.389a11.833 11.833 0 0 1 3.519-1.143c.611-.097 1.234-.097 1.85-.146h571.744l1.85.146z" fill="#fff" fill-rule="nonzero"/><path d="M856.446 356.592c.468.138.948.239 1.404.414 3.653 1.394 6.19 5.262 5.991 9.19a9.385 9.385 0 0 1-2.057 5.388c-.307.38-.671.709-1.006 1.064l-67.934 61.384c-.387.297-.752.626-1.161.893-3.275 2.135-7.895 1.915-10.956-.555-3.043-2.455-4.261-6.918-2.858-10.592a9.342 9.342 0 0 1 1.455-2.531c.307-.38.671-.709 1.007-1.064l67.934-61.384c.386-.297.751-.626 1.16-.893a9.382 9.382 0 0 1 4.105-1.462c.968-.103 1.945.022 2.916.148z" fill="#fff" fill-rule="nonzero"/><circle cx="403.855" cy="426.71" r="28.911" fill="#fff"/><circle cx="525.35" cy="364.921" r="28.911" fill="#fff"/><circle cx="1106.27" cy="364.216" r="28.911" fill="#fff"/><path d="M361.385 446.715a46.451 46.451 0 0 0 14.322 13.814c-37.316 22.488-81.023 35.428-127.729 35.428C111.115 495.957 0 384.841 0 247.978S111.115 0 247.978 0s247.979 111.115 247.979 247.978c0 58.345-20.193 112.01-53.966 154.383a46.337 46.337 0 0 0-11.841-15.982c29.261-38.441 46.64-86.407 46.64-138.401 0-126.284-102.527-228.812-228.812-228.812-126.284 0-228.812 102.528-228.812 228.812 0 126.285 102.528 228.812 228.812 228.812 41.253 0 79.97-10.94 113.407-30.075z" fill="#fff"/><path d="M402.578 152.477c17.194 27.758 27.123 60.479 27.123 95.501 0 100.296-81.427 181.723-181.723 181.723-100.295 0-181.722-81.427-181.722-181.723 0-100.295 81.427-181.722 181.722-181.722 20.22 0 39.672 3.309 57.845 9.415-19.17 11.546-32.003 32.561-32.003 56.551 0 36.407 29.558 65.965 65.966 65.965 29.342 0 54.236-19.199 62.792-45.71z" fill="#fff"/><path d="M689.655 80.633h-34.269l15.015-48.38h-35.478l-60.171 48.38h-14.111l-15.015 48.38h14.11L525.95 237.868c-11.387 36.688 12.316 56.443 67.147 56.443 10.482 0 20.13-1.209 29.348-3.628l14.89-47.977c-4.254 2.016-8.661 3.225-13.096 3.225-12.901 0-17.906-7.256-13.901-20.158l30.032-96.76h34.269l15.016-48.38zm104.058-4.031c-67.731 0-96.732 12.901-107.744 48.38l-37.54 120.949c-11.011 35.479 9.981 48.38 77.713 48.38s96.732-12.901 107.744-48.38l37.54-120.949c11.011-35.479-9.981-48.38-77.713-48.38zm-15.015 48.38c7.66 0 9.592 8.063 5.838 20.158l-25.027 80.633c-3.754 12.095-10.691 20.158-18.351 20.158-7.661 0-9.593-8.063-5.839-20.158l25.027-80.633c3.754-12.095 10.691-20.158 18.352-20.158zm120.603-44.349L834.232 290.28h80.633l46.3-149.172c4.907-2.822 9.036-4.435 12.665-4.435 8.466 0 10.649 7.257 6.519 20.562L939.055 290.28h80.634l46.299-149.172c4.907-2.822 9.036-4.435 12.665-4.435 8.466 0 10.649 7.257 6.52 20.562l-25.027 80.633c-11.888 38.301-13.848 52.412-2.157 52.412h68.539c1.293-8.064 4.115-19.755 7.995-32.254l41.293-133.044c8.76-28.222-7.964-48.38-41.427-48.38-23.787 0-45.822 6.047-65.73 16.933-6.701-10.886-20.144-16.933-39.093-16.933-30.641 0-59.322 9.272-84.36 24.996l-8.007-20.965h-37.898zM1138.62 290.28h80.633l30.032-96.76h11.289c7.66 0 10.398 8.063 6.644 20.158l-7.508 24.19c-11.887 38.301-13.848 52.412-2.156 52.412h68.538c1.293-8.064 4.116-19.755 7.995-32.254l12.513-40.316c6.132-19.755-7.339-38.704-27.441-47.977 24.245-9.273 46.434-26.206 52.19-44.751l13.765-44.349h-76.602l-16.392 52.815c-3.754 12.095-15.405 19.755-23.065 19.755h-7.257L1309.349 0h-80.634l-90.095 290.28zm356.6-213.678c-67.732 0-96.733 12.901-107.744 48.38l-37.54 120.949c-11.012 35.479 9.98 48.38 77.712 48.38s96.733-12.901 107.744-48.38l37.54-120.949c11.012-35.479-9.98-48.38-77.712-48.38zm-15.016 48.38c7.66 0 9.592 8.063 5.838 20.158l-25.026 80.633c-3.754 12.095-10.692 20.158-18.352 20.158s-9.592-8.063-5.838-20.158l25.026-80.633c3.754-12.095 10.692-20.158 18.352-20.158zm120.606-44.349l-65.069 209.647h80.633l46.299-149.172c4.908-2.822 9.037-4.435 12.665-4.435 8.467 0 10.649 7.257 6.52 20.562l-25.027 80.633c-11.887 38.301-13.848 52.412-2.156 52.412h68.538c1.293-8.064 4.116-19.755 7.995-32.254l41.294-133.044c8.759-28.222-7.965-48.38-41.428-48.38-30.64 0-59.321 9.272-84.36 24.996l-8.007-20.965h-37.897zm210.2-34.269h80.634L1906.034 0h-80.633l-14.391 46.364zm-10.636 34.269l-48.802 157.235c-11.887 38.301-13.848 52.412-2.156 52.412h68.538c1.293-8.064 4.116-19.755 7.995-32.254l55.058-177.393h-80.633zM2023.59 0l-29.406 94.744c-10.885-11.692-25.413-18.142-42.749-18.142-33.463 0-62.7 20.158-71.459 48.38l-37.54 120.949c-8.759 28.222 7.964 48.38 41.427 48.38 30.238 0 58.918-9.272 83.832-24.593l4.503 20.562h43.946c1.293-8.064 4.115-19.755 7.994-32.254L2104.223 0h-80.633zm-71.326 229.805c-4.907 2.822-9.036 4.435-12.665 4.435-7.66 0-10.273-8.467-6.519-20.562l17.518-56.443c3.754-12.095 11.623-20.562 19.283-20.562 3.629 0 6.757 1.613 9.913 4.435l-27.53 88.697zm125.186-80.633h76.601l1.252-4.032c3.754-12.095 10.691-20.158 18.351-20.158 8.064 0 9.593 8.063 5.964 19.755-4.63 14.917-12.833 20.561-30.572 20.561-56.04 0-84.638 12.902-95.649 48.38l-10.011 32.253c-8.759 28.222 7.965 48.38 41.427 48.38 28.625 0 55.846-8.466 79.453-22.174l8.382 19.755s43.737-3.225 44.946-3.225c1.294-8.063 1.739-12.095 11.249-42.736l37.54-120.949c11.011-35.479-9.578-48.38-77.713-48.38-64.91 0-92.701 12.901-103.712 48.38l-7.508 24.19zm73.137 89.099c-4.379 2.419-7.98 3.629-11.205 3.629-14.514 0-16.141-6.451-12.387-18.546 6.632-21.368 25.136-17.336 35.354-22.98l-11.762 37.897zm303.053-93.131l8.759-28.222c9.135-29.431-11.274-40.316-76.183-40.316-67.732 0-92.701 12.901-103.713 48.38l-13.139 42.332c-8.133 26.206 16.251 34.672 41.914 40.317 25.664 5.644 51.925 8.063 47.546 22.174-3.629 11.692-11.456 16.126-29.196 16.126-12.901 0-21.687-8.063-19.184-16.126l2.502-8.063h-64.506l-10.011 32.253c-8.134 26.206 19.74 40.316 80.215 40.316 67.732 0 96.732-12.901 107.744-48.38l15.016-48.379c8.134-26.206-17.585-34.27-44.243-39.309-26.657-5.04-54.253-7.056-49.874-21.166 2.753-8.87 9.802-12.095 25.929-12.095 11.691 0 20.922 4.031 18.42 12.095l-2.503 8.063h64.507z" fill="#fff" fill-rule="nonzero"/><text x="1156.6" y="394.749" font-family="'AppleSDGothicNeo-Regular','Apple SD Gothic Neo'" font-size="117.601" fill="#fff">p<tspan x="1217px 1256.13px 1315.36px 1352.03px 1407.62px 1454.13px 1500.63px 1527.04px 1586.27px 1645.71px 1698.31px 1724.72px 1754.97px 1809.71px 1836.12px 1896.52px 1952.12px 2011.35px 2041.6px 2088.11px 2143.7px 2183.9px 2238.64px 2265.04px 2315.29px 2370.88px" y="394.749px 394.749px 394.749px 394.749px 394.749px 394.749px 394.749px 394.749px 394.749px 394.749px 394.749px 394.749px 394.749px 394.749px 394.749px 394.749px 394.749px 394.749px 394.749px 394.749px 394.749px 394.749px 394.749px 394.749px 394.749px 394.749px">rofessional video services</tspan></text></svg>