<?xml version="1.0" standalone="no"?>
<!DOCTYPE svg PUBLIC "-//W3C//DTD SVG 20010904//EN"
 "http://www.w3.org/TR/2001/REC-SVG-20010904/DTD/svg10.dtd">
<svg version="1.0" xmlns="http://www.w3.org/2000/svg"
 width="700.000000pt" height="700.000000pt" viewBox="0 0 700.000000 700.000000"
 preserveAspectRatio="xMidYMid meet">
<metadata>
Created by potrace 1.11, written by Peter Selinger 2001-2013
</metadata>
<g transform="translate(0.000000,700.000000) scale(0.100000,-0.100000)"
fill="#000000" stroke="none">
<path d="M3298 6995 c-2 -1 -41 -5 -88 -9 -100 -7 -225 -22 -295 -36 -27 -5
-61 -12 -75 -14 -198 -36 -503 -126 -657 -193 -21 -9 -40 -17 -43 -18 -28 -6
-276 -129 -368 -182 -483 -278 -883 -652 -1191 -1116 -70 -105 -79 -119 -161
-267 -135 -244 -271 -600 -326 -853 -20 -90 -53 -272 -59 -322 -4 -33 -9 -69
-11 -80 -18 -98 -25 -516 -12 -690 26 -325 133 -781 239 -1012 10 -24 19 -45
19 -48 0 -3 19 -46 42 -97 136 -303 359 -644 588 -898 91 -101 274 -277 359
-346 13 -10 28 -24 35 -29 51 -47 406 -295 422 -295 2 0 22 -11 43 -24 59 -38
286 -150 386 -191 291 -121 613 -209 880 -241 28 -3 61 -8 75 -10 180 -31 720
-21 913 17 26 5 71 12 100 15 72 9 309 67 446 111 210 66 494 191 689 303 l53
31 -58 44 c-52 40 -86 74 -126 129 -14 19 -19 18 -158 -51 -171 -84 -189 -92
-311 -139 -165 -64 -422 -136 -575 -160 -19 -3 -44 -7 -53 -9 -10 -2 -40 -6
-67 -10 -26 -4 -59 -9 -73 -11 -149 -24 -624 -24 -770 1 -14 2 -43 6 -65 9
-22 4 -51 8 -65 11 -14 2 -43 7 -65 10 -22 3 -47 7 -55 10 -8 2 -26 6 -40 9
-14 2 -61 13 -105 25 -496 128 -923 349 -1315 679 -113 95 -341 334 -434 453
-95 122 -203 282 -280 417 -44 75 -165 325 -179 369 -4 10 -13 36 -22 58 -49
125 -119 358 -140 470 -5 22 -9 45 -11 50 -15 68 -40 234 -51 350 -15 155 -7
584 12 680 2 11 7 40 10 65 3 25 7 55 9 66 2 12 7 37 10 55 12 71 18 98 51
229 110 436 322 857 616 1222 73 91 313 339 394 408 257 218 570 415 835 524
36 15 79 33 95 41 203 90 595 182 905 212 98 10 464 10 560 0 86 -9 215 -25
251 -32 13 -3 51 -10 84 -16 254 -45 580 -156 836 -284 220 -111 482 -286 667
-447 47 -42 277 -272 318 -319 107 -122 267 -348 360 -504 29 -48 146 -284
178 -355 95 -220 195 -581 221 -800 3 -30 8 -62 10 -70 10 -39 19 -223 19
-385 0 -161 -10 -381 -19 -395 -2 -3 -6 -31 -10 -63 -3 -32 -10 -82 -16 -110
-5 -29 -12 -65 -15 -82 -19 -113 -106 -400 -169 -560 -78 -197 -237 -487 -363
-664 l-60 -84 40 -41 c35 -37 112 -145 121 -171 5 -13 31 17 121 145 308 436
528 971 600 1465 4 22 9 54 11 70 28 179 39 557 21 775 -84 1057 -662 2032
-1556 2627 -359 239 -792 421 -1207 508 -100 20 -248 43 -393 60 -56 7 -526
16 -532 10z"/>
<path d="M3417 6064 c-1 -1 -46 -4 -100 -8 -430 -26 -897 -187 -1252 -430
-205 -140 -463 -384 -598 -566 -43 -58 -84 -112 -90 -120 -22 -28 -114 -185
-159 -270 -104 -199 -213 -518 -242 -712 -3 -21 -9 -55 -12 -75 -3 -21 -7 -49
-9 -63 -8 -46 -18 -224 -18 -320 -1 -94 11 -309 18 -320 1 -3 6 -29 9 -59 4
-30 9 -64 11 -75 3 -12 7 -32 9 -46 28 -166 121 -439 215 -630 61 -123 55
-112 150 -260 250 -389 595 -698 1011 -905 189 -94 342 -150 550 -199 110 -26
133 -31 215 -42 28 -3 52 -8 55 -9 11 -6 236 -18 341 -18 94 1 233 9 278 18 9
1 43 6 76 9 150 17 484 111 630 177 28 13 52 24 55 24 5 1 40 19 170 87 192
102 403 260 575 433 104 103 131 133 212 233 220 269 423 705 493 1059 5 27
12 59 15 73 7 33 26 183 31 240 5 65 6 399 1 408 -3 4 -8 44 -11 89 -4 45 -9
92 -11 105 -44 231 -71 334 -131 497 -34 95 -151 340 -198 416 l-25 40 -9 -25
c-123 -324 -401 -551 -738 -606 -72 -12 -198 -10 -284 3 -449 69 -783 458
-783 913 0 91 7 149 27 235 44 191 201 417 366 528 35 24 49 38 39 41 -118 42
-300 86 -424 102 -27 3 -59 8 -70 10 -37 8 -382 23 -388 18z"/>
<path d="M5655 1383 c-135 -23 -242 -92 -303 -194 -157 -263 22 -600 325 -614
368 -18 569 423 314 684 -88 90 -229 142 -336 124z"/>
</g>
</svg>
